<?xml version="1.0" standalone="no"?>
<!DOCTYPE svg PUBLIC "-//W3C//DTD SVG 20010904//EN"
 "http://www.w3.org/TR/2001/REC-SVG-20010904/DTD/svg10.dtd">
<svg version="1.0" xmlns="http://www.w3.org/2000/svg"
 width="300.000000pt" height="300.000000pt" viewBox="0 0 300.000000 300.000000"
 preserveAspectRatio="xMidYMid meet">
<metadata>
Created by potrace 1.14, written by Peter Selinger 2001-2017
</metadata>
<g transform="translate(0.000000,300.000000) scale(0.100000,-0.100000)"
fill="#000000" stroke="none">
<path d="M1519 2975 c-3 -2 -39 -5 -81 -6 -268 -7 -558 -108 -798 -278 -296
-210 -516 -555 -581 -911 -15 -82 -19 -315 -8 -399 51 -362 246 -694 541 -920
37 -28 70 -51 72 -51 3 0 25 -14 50 -31 61 -40 212 -110 312 -143 258 -85 580
-95 846 -26 117 30 164 47 277 101 443 210 747 633 797 1110 18 173 2 446 -31
552 -133 420 -453 752 -874 906 -136 50 -309 86 -435 90 -39 1 -73 4 -77 6 -3
3 -8 3 -10 0z"/>
</g>
</svg>
